<?xml version="1.0" encoding="UTF-8"?>
<svg id="Layer_1" xmlns="http://www.w3.org/2000/svg" version="1.1" viewBox="0 0 2000 2000">
  <!-- Generator: Adobe Illustrator 30.1.0, SVG Export Plug-In . SVG Version: 2.1.1 Build 136)  -->
  <defs>
    <style>
      .st0 {
        stroke: #fff;
      }

      .st0, .st1 {
        fill: #fff;
      }

      .st0, .st1, .st2 {
        stroke-miterlimit: 10;
      }

      .st1, .st2 {
        stroke: #231f20;
      }

      .st2 {
        fill: #231f20;
      }
    </style>
  </defs>
  <path class="st2" d="M1873.3,1048.5c-56.76-180.35-240.52-314.68-546.25-399.4,13.64-33.58,21.05-69.8,21.05-107.65,0-83.95-36.74-160.06-96.31-216.32,46.37-90.18,119.33-139.36,217.17-146,28.13-1.96,49.44-26.34,47.47-54.55-1.87-28.12-26.25-49.26-54.46-47.47-149.67,10.23-241.8,94.53-294.99,189.22-49.52-24.46-106.37-38.35-166.8-38.35s-117.28,13.89-166.8,38.35c-53.18-94.69-145.32-178.99-294.99-189.22-28.21-1.79-52.59,19.35-54.46,47.47-1.96,28.21,19.35,52.59,47.47,54.55,97.85,6.65,170.81,55.83,217.17,146-59.58,56.25-96.31,132.36-96.31,216.32,0,37.84,7.41,74.07,21.05,107.65-305.73,84.72-489.49,219.05-546.25,399.4-35.88,114.04-19.18,214.44,47.05,282.46,51.05,52.5,126.23,80.46,209.25,80.46,35.71,0,72.87-5.2,110.21-15.77,35.71-10.06,70.06-24.89,102.11-44.06,10.57-6.31,22.93-15.09,36.82-26.17-.17,2.3-.42,4.69-.6,6.99-5.71,83.36,6.73,165.6,35.97,237.88,25.91,64.09,64.35,119.92,114.21,165.95,4.37,4.04,193.05,187.68,218.11,187.76,25.06-.08,120.32-100.17,157.26-137.22,20.21-18.89,36.93-34.78,54.98-56.57,43.91-47.32,94.17-95.82,120.08-159.92,29.24-72.28,41.68-154.52,35.97-237.88-.17-2.3-.42-4.69-.6-6.99,13.89,11.08,26.25,19.86,36.82,26.17,32.05,19.18,66.4,34.01,102.11,44.06,37.33,10.57,74.49,15.77,110.21,15.77,83.02,0,158.19-27.96,209.25-80.46,66.22-68.02,82.93-168.42,47.05-282.46h-.02ZM1175.68,1139.61c-55.66,14.4-114.89,22.07-174.64,22.07h-1.71c-59.75,0-118.98-7.67-174.64-22.07,58.04-64.69,129.3-152.65,175.49-239.33,46.2,86.68,117.45,174.64,175.49,239.33h.01ZM1247.87,1216.06l4.69,4.6.09.09c8.86,28.47,15.26,57.53,19.09,86.85-81.06,36.31-173.96,55.48-270.7,55.48h-1.71c-96.74,0-189.64-19.18-270.7-55.48,3.84-29.32,10.23-58.38,19.09-86.85l.09-.09,4.69-4.6c76.96,25.74,161.6,39.38,246.83,39.38h1.71c85.23,0,169.87-13.64,246.83-39.38h0ZM673.58,1162.28l-12.27,12.11c-32.47,31.45-62.99,58.64-87.02,77.47-14.15,11.34-22.76,16.88-26.68,19.26-24.97,14.92-51.82,26.42-79.61,34.35-28.47,8.09-56.94,12.02-84.04,12.02-57.96,0-109.78-18.07-142.68-51.91-41.59-42.79-50.2-108.16-24.72-188.96,47.05-149.67,212.14-263.96,490.51-339.56,5.71-1.54,11.42-3.07,17.22-4.6,39.8-10.4,81.74-20.03,127.51-29.41,63.5-13.04,82.51-1.45,85.66.94,8.44,6.56,13.38,14.32,15.68,24.72v.08s1.7,18.84,0,30.34v.09c0,.34.09.68.09,1.02-2.81,20.8-11.08,45.52-24.38,73.47-2.05,4.35-4.26,8.86-6.65,13.38-40.49,79.09-118.3,180.94-215.89,282.12-10.4,10.82-21.48,21.99-32.73,33.07h0ZM1154.71,1667.28c-17.81,16.45-35.56,33.49-51.39,49.32-40.34,37.9-68.19,61.74-103.14,90.64-35.75-28.35-69.46-55.41-101.63-90.13-18.32-14.4-35.09-33.38-52.9-49.83-10.31-9.46-20.03-19.6-29.15-30.17,58.72,13.89,120.43,21.14,182.82,21.14h1.71c62.39,0,124.1-7.25,182.82-21.14-15.09,15.15-15.68,17.39-29.15,30.17h.01ZM1252.22,1517.19c-76.37,30.85-162.62,47.31-251.18,47.31h-1.71c-88.56,0-174.81-16.45-251.18-47.31-11.93-34.35-19.43-71.25-22.33-109.35,84.21,32.13,177.37,49.01,273.51,49.01h1.71c96.14,0,189.3-16.88,273.51-49.01-2.9,38.1-10.4,75.01-22.33,109.35h0ZM1759.09,1265.58c-32.9,33.84-84.72,51.91-142.68,51.91-27.1,0-55.57-3.92-84.04-12.02-27.78-7.93-54.63-19.43-79.61-34.35-3.92-2.39-12.53-7.93-26.68-19.26-24.04-18.84-54.55-46.02-87.02-77.47l-12.27-12.11c-11.25-11.08-22.33-22.24-32.73-33.07-97.59-101.17-175.41-203.02-215.89-282.12-2.39-4.52-4.6-9.04-6.65-13.38-13.3-27.95-21.56-52.67-24.38-73.47,0-.34.09-.68.09-1.02v-.09c-1.7-11.51,0-30.34,0-30.34v-.08c2.3-10.4,7.25-18.16,15.68-24.72,3.15-2.39,22.16-13.98,85.66-.94,45.77,9.38,87.7,19.01,127.51,29.41,5.8,1.53,11.51,3.07,17.22,4.6,278.37,75.6,443.46,189.9,490.51,339.56,25.49,80.8,16.88,146.17-24.72,188.96h0Z"/>
  <path class="st0" d="M1031.5,1740.5"/>
  <path class="st0" d="M970.5,1686.5"/>
  <path class="st0" d="M816.51,1637.11"/>
  <path class="st0" d="M879.5,1654.5"/>
  <path class="st0" d="M816.51,1637.11"/>
  <path class="st1" d="M1147,1795.55"/>
  <path class="st1" d="M910.5,1754.5"/>
</svg>